<?xml version="1.0" encoding="UTF-8" ?>
<!DOCTYPE svg PUBLIC "-//W3C//DTD SVG 1.1//EN" "http://www.w3.org/Graphics/SVG/1.1/DTD/svg11.dtd">
<svg width="210pt" height="210pt" viewBox="0 0 210 210" version="1.1" xmlns="http://www.w3.org/2000/svg">
<g id="#1b3529ff">
<path fill="#2b3a44" opacity="1.00" d=" M 53.48 20.87 C 75.95 17.46 98.89 21.00 120.46 27.60 C 138.42 33.66 155.92 41.52 171.42 52.53 C 179.16 57.60 185.99 63.97 192.07 70.92 C 197.74 77.06 202.18 84.65 203.24 93.05 C 204.83 101.04 201.16 108.71 197.57 115.61 C 190.01 129.13 179.53 140.73 168.77 151.77 C 154.64 165.50 140.00 179.40 121.93 187.80 C 106.42 193.60 89.44 197.44 72.93 194.05 C 53.67 189.41 38.84 174.17 30.09 156.94 C 23.94 145.41 19.48 133.05 15.89 120.50 C 11.82 106.00 7.16 91.26 8.04 76.01 C 7.34 65.24 9.55 54.27 14.80 44.80 C 17.90 40.01 21.68 35.67 26.09 32.04 C 34.20 26.27 43.68 22.52 53.48 20.87 M 92.74 52.53 C 85.00 72.00 77.31 91.49 69.66 110.99 C 85.51 111.01 101.36 110.99 117.22 111.00 C 109.93 92.48 102.58 73.99 95.32 55.46 C 94.78 54.19 94.46 52.49 92.74 52.53 M 57.64 140.51 C 54.77 147.51 51.87 154.50 49.04 161.52 C 50.79 162.17 52.54 162.83 54.29 163.49 C 56.63 157.74 58.96 151.98 61.34 146.24 C 82.69 146.27 104.04 146.23 125.39 146.26 C 127.76 152.01 130.17 157.75 132.55 163.49 C 134.30 162.83 136.05 162.17 137.81 161.52 C 134.97 154.50 132.08 147.51 129.20 140.50 C 105.35 140.49 81.50 140.49 57.64 140.51 Z" />
<path fill="#2b3a44" opacity="1.00" d=" M 93.46 65.50 C 98.49 78.77 103.67 91.99 108.74 105.24 C 98.52 105.25 88.30 105.25 78.09 105.24 C 83.22 92.00 88.26 78.72 93.46 65.50 Z" />
</g>
</svg>
